<mxfile host="app.diagrams.net" modified="2023-09-24T07:20:41.659Z" agent="Mozilla/5.0 (X11; Linux x86_64) AppleWebKit/537.36 (KHTML, like Gecko) Chrome/111.0.0.0 Safari/537.36" version="21.8.0" etag="zZxypFLZHaqFcTKOos8y" type="github">
  <diagram name="Page-1" id="iPjhzmpBiVVZatO666sv">
    <mxGraphModel>
      <root>
        <mxCell id="0" />
        <mxCell id="1" parent="0" />
      </root>
    </mxGraphModel>
  </diagram>
</mxfile>
